<?xml version="1.0" encoding="UTF-8"?>
<svg version="1.1" xmlns="http://www.w3.org/2000/svg" width="32" height="32">
<path d="M0 0 C3 1.375 3 1.375 5 3 C5 3.66 5 4.32 5 5 C5.66 5 6.32 5 7 5 C9.47823665 8.71735498 9.5897167 12.68395749 9 17 C7.5 20 7.5 20 6 22 C5.566875 21.505 5.13375 21.01 4.6875 20.5 C3.00259517 18.66781808 3.00259517 18.66781808 0 19 C0.66 20.32 1.32 21.64 2 23 C1 24.5 1 24.5 -1 26 C-7.46289678 26.84759302 -7.46289678 26.84759302 -10.78515625 25.015625 C-13.6309013 22.75021617 -15.99584797 20.51453209 -17 17 C-17.46225901 12.22332358 -17.49973779 9.98096677 -15.3125 5.6875 C-10.8300957 0.47821932 -6.7276461 -1.030849 0 0 Z " fill="#0165FD" transform="translate(20,0)"/>
<path d="M0 0 C3 1.375 3 1.375 5 3 C5 3.66 5 4.32 5 5 C4.33613281 5.10957031 3.67226563 5.21914062 2.98828125 5.33203125 C-5.18299673 6.64223949 -5.18299673 6.64223949 -11.3125 11.8125 C-12.2219548 14.70621983 -12.32075678 16.9848863 -12 20 C-11.04451019 21.95625978 -11.04451019 21.95625978 -9 23 C-5.38976901 23.73041853 -5.38976901 23.73041853 -2 24 C-2 23.01 -2 22.02 -2 21 C-2.99 21.33 -3.98 21.66 -5 22 C-5 21.01 -5 20.02 -5 19 C-3.35 19 -1.7 19 0 19 C0.66 20.32 1.32 21.64 2 23 C1 24.5 1 24.5 -1 26 C-7.46289678 26.84759302 -7.46289678 26.84759302 -10.78515625 25.015625 C-13.6309013 22.75021617 -15.99584797 20.51453209 -17 17 C-17.46225901 12.22332358 -17.49973779 9.98096677 -15.3125 5.6875 C-10.8300957 0.47821932 -6.7276461 -1.030849 0 0 Z " fill="#0102CD" transform="translate(20,0)"/>
<path d="M0 0 C0.680625 -0.01417969 1.36125 -0.02835938 2.0625 -0.04296875 C4 0.1875 4 0.1875 7 2.1875 C6.50168276 5.87504757 5.89932357 7.79240662 3 10.1875 C2.34 9.1975 1.68 8.2075 1 7.1875 C-2.58357241 6.93734127 -2.58357241 6.93734127 -6 7.1875 C-6.33 7.8475 -6.66 8.5075 -7 9.1875 C-6.34 9.8475 -5.68 10.5075 -5 11.1875 C-6.65 11.1875 -8.3 11.1875 -10 11.1875 C-10.75 8.4375 -10.75 8.4375 -11 5.1875 C-7.95451986 1.16311553 -4.9326166 0.04671038 0 0 Z " fill="#17CFFE" transform="translate(22,11.8125)"/>
</svg>
